<svg width="257" height="71" viewBox="0 0 257 71" fill="none" xmlns="http://www.w3.org/2000/svg">
<g filter="url(#filter0_di_147_23)">
<path d="M4 14.517C4 7.06112 10.0442 1.01697 17.5 1.01697V1.01697C24.9558 1.01697 31 7.06112 31 14.517V32.017H4V14.517Z" fill="#D9D9D9"/>
<path d="M30.5 14.517V31.517H4.5V14.517C4.5 7.33727 10.3203 1.51697 17.5 1.51697C24.6797 1.51697 30.5 7.33727 30.5 14.517Z" stroke="black"/>
</g>
<g filter="url(#filter1_di_147_23)">
<path d="M31.0238 48.517C31.034 55.9728 24.9981 62.0252 17.5422 62.0354V62.0354C10.0864 62.0455 4.03403 56.0096 4.02387 48.5538L4.00002 31.0538L31 31.017L31.0238 48.517Z" fill="#7D278B"/>
<path d="M4.52387 48.5531L4.5007 31.5531L30.5007 31.5177L30.5238 48.5177C30.5336 55.6974 24.7213 61.5256 17.5416 61.5354C10.3619 61.5451 4.53365 55.7328 4.52387 48.5531Z" stroke="black"/>
</g>
<g filter="url(#filter2_di_147_23)">
<path d="M38.7182 0.334788C47.2015 1.48115 53.1493 9.28754 52.0029 17.7709V17.7709C50.8566 26.2542 43.0502 32.2019 34.5669 31.0556L32.0894 30.7208L36.2407 1.49012e-06L38.7182 0.334788Z" fill="#D9D9D9"/>
<path d="M34.6338 30.5601L32.6518 30.2922L36.6693 0.562455L38.6513 0.830284C46.8609 1.93967 52.6168 9.49424 51.5074 17.7039C50.3981 25.9135 42.8435 31.6695 34.6338 30.5601Z" stroke="black"/>
</g>
<path d="M36.08 55.84L38.708 55.12V42.664L36.008 41.944V40H42.128V55.12L44.828 55.84V58H36.08V55.84ZM40.292 36.436C39.62 36.436 39.068 36.22 38.636 35.788C38.204 35.356 37.988 34.804 37.988 34.132C37.988 33.46 38.204 32.92 38.636 32.512C39.068 32.08 39.62 31.864 40.292 31.864C40.964 31.864 41.516 32.08 41.948 32.512C42.38 32.92 42.596 33.46 42.596 34.132C42.596 34.804 42.38 35.356 41.948 35.788C41.516 36.22 40.964 36.436 40.292 36.436ZM45.7688 55.84L48.3968 55.12V33.7L45.6968 32.98V30.82H51.8168V55.12L54.5168 55.84V58H45.7688V55.84ZM55.4368 55.84L58.0648 55.12V33.7L55.3648 32.98V30.82H61.4848V55.12L64.1848 55.84V58H55.4368V55.84ZM65.0687 40.72L67.7687 40L68.4887 35.284H71.1887V40H74.5727V42.628H71.1887V52.42C71.1887 53.524 71.3207 54.328 71.5847 54.832C71.8487 55.336 72.2807 55.588 72.8807 55.588C73.1447 55.588 73.4807 55.552 73.8887 55.48C74.2967 55.408 74.6807 55.312 75.0407 55.192L75.7967 57.208C75.4367 57.544 74.9087 57.82 74.2127 58.036C73.5407 58.252 72.8327 58.36 72.0887 58.36C70.5767 58.36 69.4727 57.892 68.7767 56.956C68.1047 55.996 67.7687 54.484 67.7687 52.42V42.628H65.0687V40.72ZM84.9562 58.36C83.5162 58.36 82.3162 58.144 81.3562 57.712C80.3962 57.28 79.6282 56.656 79.0522 55.84C78.4762 55.024 78.0682 54.04 77.8282 52.888C77.5882 51.736 77.4682 50.44 77.4682 49C77.4682 47.56 77.5882 46.264 77.8282 45.112C78.0682 43.936 78.4762 42.952 79.0522 42.16C79.6522 41.344 80.4322 40.72 81.3922 40.288C82.3762 39.856 83.5882 39.64 85.0282 39.64C86.2522 39.64 87.2722 39.808 88.0882 40.144C88.9042 40.48 89.5642 40.996 90.0682 41.692C90.5722 42.364 90.9322 43.228 91.1482 44.284C91.3642 45.316 91.4722 46.54 91.4722 47.956C91.4722 48.244 91.4722 48.544 91.4722 48.856C91.4722 49.144 91.4602 49.456 91.4362 49.792H81.2842C81.2842 50.68 81.3202 51.52 81.3922 52.312C81.4642 53.08 81.6202 53.752 81.8602 54.328C82.1242 54.904 82.4962 55.36 82.9762 55.696C83.4562 56.032 84.1162 56.2 84.9562 56.2C85.6522 56.2 86.2042 56.092 86.6122 55.876C87.0442 55.636 87.3682 55.348 87.5842 55.012C87.8002 54.652 87.9442 54.268 88.0162 53.86C88.0882 53.452 88.1362 53.056 88.1602 52.672H91.4362C91.3642 53.368 91.2082 54.064 90.9682 54.76C90.7522 55.432 90.3922 56.044 89.8882 56.596C89.4082 57.124 88.7722 57.556 87.9802 57.892C87.1882 58.204 86.1802 58.36 84.9562 58.36ZM84.8122 41.8C84.0682 41.8 83.4682 41.956 83.0122 42.268C82.5562 42.58 82.1962 43 81.9322 43.528C81.6922 44.056 81.5242 44.68 81.4282 45.4C81.3562 46.096 81.3082 46.84 81.2842 47.632H88.1242C88.1242 45.472 87.8602 43.96 87.3322 43.096C86.8282 42.232 85.9882 41.8 84.8122 41.8ZM105.465 42.916C104.457 42.916 103.617 42.976 102.945 43.096C102.273 43.216 101.733 43.456 101.325 43.816C100.917 44.176 100.617 44.668 100.425 45.292C100.257 45.916 100.173 46.732 100.173 47.74V55.192L103.917 55.66V58H94.0527V55.912L96.7527 55.192V42.88L94.0167 42.16V40H99.2727L99.9927 42.88C100.401 41.776 101.109 40.96 102.117 40.432C103.125 39.904 104.241 39.64 105.465 39.64V42.916ZM114.523 58.36C113.083 58.36 111.883 58.144 110.923 57.712C109.963 57.28 109.195 56.656 108.619 55.84C108.043 55.024 107.635 54.04 107.395 52.888C107.155 51.736 107.035 50.44 107.035 49C107.035 47.56 107.155 46.264 107.395 45.112C107.635 43.936 108.043 42.952 108.619 42.16C109.219 41.344 109.999 40.72 110.959 40.288C111.943 39.856 113.155 39.64 114.595 39.64C115.819 39.64 116.839 39.808 117.655 40.144C118.471 40.48 119.131 40.996 119.635 41.692C120.139 42.364 120.499 43.228 120.715 44.284C120.931 45.316 121.039 46.54 121.039 47.956C121.039 48.244 121.039 48.544 121.039 48.856C121.039 49.144 121.027 49.456 121.003 49.792H110.851C110.851 50.68 110.887 51.52 110.959 52.312C111.031 53.08 111.187 53.752 111.427 54.328C111.691 54.904 112.063 55.36 112.543 55.696C113.023 56.032 113.683 56.2 114.523 56.2C115.219 56.2 115.771 56.092 116.179 55.876C116.611 55.636 116.935 55.348 117.151 55.012C117.367 54.652 117.511 54.268 117.583 53.86C117.655 53.452 117.703 53.056 117.727 52.672H121.003C120.931 53.368 120.775 54.064 120.535 54.76C120.319 55.432 119.959 56.044 119.455 56.596C118.975 57.124 118.339 57.556 117.547 57.892C116.755 58.204 115.747 58.36 114.523 58.36ZM114.379 41.8C113.635 41.8 113.035 41.956 112.579 42.268C112.123 42.58 111.763 43 111.499 43.528C111.259 44.056 111.091 44.68 110.995 45.4C110.923 46.096 110.875 46.84 110.851 47.632H117.691C117.691 45.472 117.427 43.96 116.899 43.096C116.395 42.232 115.555 41.8 114.379 41.8ZM126.751 55.768L126.031 58H124.015V52.42H127.111C127.111 53.692 127.423 54.616 128.047 55.192C128.695 55.744 129.451 56.02 130.315 56.02C130.963 56.02 131.575 55.852 132.151 55.516C132.727 55.156 133.015 54.592 133.015 53.824C133.015 53.2 132.799 52.708 132.367 52.348C131.935 51.964 131.395 51.628 130.747 51.34C130.123 51.052 129.439 50.764 128.695 50.476C127.951 50.188 127.255 49.816 126.607 49.36C125.983 48.904 125.455 48.328 125.023 47.632C124.591 46.912 124.375 45.988 124.375 44.86C124.375 43.924 124.519 43.132 124.807 42.484C125.119 41.812 125.515 41.272 125.995 40.864C126.475 40.432 127.003 40.12 127.579 39.928C128.179 39.736 128.767 39.64 129.343 39.64C129.751 39.64 130.147 39.688 130.531 39.784C130.915 39.88 131.263 40.036 131.575 40.252C131.911 40.468 132.187 40.744 132.403 41.08C132.619 41.416 132.763 41.812 132.835 42.268H132.979L133.699 40H135.715V45.616H132.655C132.631 44.488 132.355 43.6 131.827 42.952C131.299 42.304 130.579 41.98 129.667 41.98C129.019 41.98 128.491 42.172 128.083 42.556C127.699 42.94 127.507 43.456 127.507 44.104C127.507 44.776 127.723 45.304 128.155 45.688C128.587 46.072 129.115 46.42 129.739 46.732C130.387 47.02 131.083 47.308 131.827 47.596C132.595 47.884 133.291 48.256 133.915 48.712C134.563 49.144 135.103 49.708 135.535 50.404C135.967 51.076 136.183 51.964 136.183 53.068C136.183 53.98 136.027 54.772 135.715 55.444C135.403 56.116 134.995 56.668 134.491 57.1C134.011 57.532 133.447 57.844 132.799 58.036C132.175 58.252 131.539 58.36 130.891 58.36C130.459 58.36 130.015 58.312 129.559 58.216C129.127 58.12 128.731 57.964 128.371 57.748C128.011 57.532 127.699 57.268 127.435 56.956C127.171 56.62 126.991 56.224 126.895 55.768H126.751ZM138.018 40.72L140.718 40L141.438 35.284H144.138V40H147.522V42.628H144.138V52.42C144.138 53.524 144.27 54.328 144.534 54.832C144.798 55.336 145.23 55.588 145.83 55.588C146.094 55.588 146.43 55.552 146.838 55.48C147.246 55.408 147.63 55.312 147.99 55.192L148.746 57.208C148.386 57.544 147.858 57.82 147.162 58.036C146.49 58.252 145.782 58.36 145.038 58.36C143.526 58.36 142.422 57.892 141.726 56.956C141.054 55.996 140.718 54.484 140.718 52.42V42.628H138.018V40.72Z" fill="black"/>
<defs>
<filter id="filter0_di_147_23" x="0" y="1.01697" width="35" height="39" filterUnits="userSpaceOnUse" color-interpolation-filters="sRGB">
<feFlood flood-opacity="0" result="BackgroundImageFix"/>
<feColorMatrix in="SourceAlpha" type="matrix" values="0 0 0 0 0 0 0 0 0 0 0 0 0 0 0 0 0 0 127 0" result="hardAlpha"/>
<feOffset dy="4"/>
<feGaussianBlur stdDeviation="2"/>
<feComposite in2="hardAlpha" operator="out"/>
<feColorMatrix type="matrix" values="0 0 0 0 0 0 0 0 0 0 0 0 0 0 0 0 0 0 0.25 0"/>
<feBlend mode="normal" in2="BackgroundImageFix" result="effect1_dropShadow_147_23"/>
<feBlend mode="normal" in="SourceGraphic" in2="effect1_dropShadow_147_23" result="shape"/>
<feColorMatrix in="SourceAlpha" type="matrix" values="0 0 0 0 0 0 0 0 0 0 0 0 0 0 0 0 0 0 127 0" result="hardAlpha"/>
<feOffset dy="4"/>
<feGaussianBlur stdDeviation="2"/>
<feComposite in2="hardAlpha" operator="arithmetic" k2="-1" k3="1"/>
<feColorMatrix type="matrix" values="0 0 0 0 0 0 0 0 0 0 0 0 0 0 0 0 0 0 0.25 0"/>
<feBlend mode="normal" in2="shape" result="effect2_innerShadow_147_23"/>
</filter>
<filter id="filter1_di_147_23" x="0" y="31.017" width="35.0239" height="39.0184" filterUnits="userSpaceOnUse" color-interpolation-filters="sRGB">
<feFlood flood-opacity="0" result="BackgroundImageFix"/>
<feColorMatrix in="SourceAlpha" type="matrix" values="0 0 0 0 0 0 0 0 0 0 0 0 0 0 0 0 0 0 127 0" result="hardAlpha"/>
<feOffset dy="4"/>
<feGaussianBlur stdDeviation="2"/>
<feComposite in2="hardAlpha" operator="out"/>
<feColorMatrix type="matrix" values="0 0 0 0 0 0 0 0 0 0 0 0 0 0 0 0 0 0 0.25 0"/>
<feBlend mode="normal" in2="BackgroundImageFix" result="effect1_dropShadow_147_23"/>
<feBlend mode="normal" in="SourceGraphic" in2="effect1_dropShadow_147_23" result="shape"/>
<feColorMatrix in="SourceAlpha" type="matrix" values="0 0 0 0 0 0 0 0 0 0 0 0 0 0 0 0 0 0 127 0" result="hardAlpha"/>
<feOffset dy="4"/>
<feGaussianBlur stdDeviation="2"/>
<feComposite in2="hardAlpha" operator="arithmetic" k2="-1" k3="1"/>
<feColorMatrix type="matrix" values="0 0 0 0 0 0 0 0 0 0 0 0 0 0 0 0 0 0 0.25 0"/>
<feBlend mode="normal" in2="shape" result="effect2_innerShadow_147_23"/>
</filter>
<filter id="filter2_di_147_23" x="28.0894" y="0" width="28.0549" height="39.197" filterUnits="userSpaceOnUse" color-interpolation-filters="sRGB">
<feFlood flood-opacity="0" result="BackgroundImageFix"/>
<feColorMatrix in="SourceAlpha" type="matrix" values="0 0 0 0 0 0 0 0 0 0 0 0 0 0 0 0 0 0 127 0" result="hardAlpha"/>
<feOffset dy="4"/>
<feGaussianBlur stdDeviation="2"/>
<feComposite in2="hardAlpha" operator="out"/>
<feColorMatrix type="matrix" values="0 0 0 0 0 0 0 0 0 0 0 0 0 0 0 0 0 0 0.25 0"/>
<feBlend mode="normal" in2="BackgroundImageFix" result="effect1_dropShadow_147_23"/>
<feBlend mode="normal" in="SourceGraphic" in2="effect1_dropShadow_147_23" result="shape"/>
<feColorMatrix in="SourceAlpha" type="matrix" values="0 0 0 0 0 0 0 0 0 0 0 0 0 0 0 0 0 0 127 0" result="hardAlpha"/>
<feOffset dy="4"/>
<feGaussianBlur stdDeviation="2"/>
<feComposite in2="hardAlpha" operator="arithmetic" k2="-1" k3="1"/>
<feColorMatrix type="matrix" values="0 0 0 0 0 0 0 0 0 0 0 0 0 0 0 0 0 0 0.25 0"/>
<feBlend mode="normal" in2="shape" result="effect2_innerShadow_147_23"/>
</filter>
</defs>
</svg>
